<svg width="14" height="12" viewBox="0 0 14 12" fill="none" xmlns="http://www.w3.org/2000/svg">
<path d="M7.16265 0.666626C7.51865 0.668626 8.40931 0.677293 9.35598 0.715293L9.69198 0.729959C10.6446 0.774626 11.5966 0.851959 12.0693 0.983293C12.6993 1.16063 13.194 1.67663 13.3613 2.33129C13.628 3.37129 13.6613 5.39929 13.6653 5.89063L13.666 5.99196V6.10796C13.6613 6.59929 13.628 8.62796 13.3613 9.66729C13.192 10.324 12.6966 10.8406 12.0693 11.0153C11.5966 11.1466 10.6446 11.224 9.69198 11.2686L9.35598 11.284C8.40931 11.3213 7.51865 11.3306 7.16265 11.332L7.00598 11.3326H6.83598C6.08265 11.328 2.93198 11.294 1.92931 11.0153C1.29998 10.838 0.804646 10.322 0.637313 9.66729C0.370646 8.62729 0.337313 6.59929 0.333313 6.10796V5.89063C0.337313 5.39929 0.370646 3.37063 0.637313 2.33129C0.806646 1.67463 1.30198 1.15796 1.92998 0.983959C2.93198 0.704626 6.08331 0.670626 6.83665 0.666626H7.16265ZM5.66598 3.66663V8.33329L9.66598 5.99996L5.66598 3.66663Z" fill="white"/>
</svg>
